<svg id="e0fglbc8loy9g1" xmlns="http://www.w3.org/2000/svg" xmlns:xlink="http://www.w3.org/1999/xlink" viewBox="0 0 1440 360" shape-rendering="geometricPrecision" text-rendering="geometricPrecision" width="1440" height="360">
    <style>
        <![CDATA[
        #e0fglbc8loy9g7_to {
            animation: e0fglbc8loy9g7_to__to 5000ms linear infinite alternate;
        }

        @keyframes e0fglbc8loy9g7_to__to {
            0% { transform: translate(0px, 30px); }
            100% { transform: translate(0px, 10px); }
        }

        #e0fglbc8loy9g11_to {
            animation: e0fglbc8loy9g11_to__to 5000ms linear infinite alternate;
        }

        @keyframes e0fglbc8loy9g11_to__to {
            0% { transform: translate(10px, 40px); }
            100% { transform: translate(10px, 0px); }
        }

        #e0fglbc8loy9g15_to {
            animation: e0fglbc8loy9g15_to__to 5000ms linear infinite alternate;
        }

        @keyframes e0fglbc8loy9g15_to__to {
            0% { transform: translate(0px, 70px); }
            100% { transform: translate(0px, 0px); }
        }
        ]]>
    </style>
    <defs>
        <clipPath id="e0fglbc8loy9g2">
            <rect id="e0fglbc8loy9g3" width="1440" height="360" rx="0" ry="0" fill="rgb(255,255,255)" stroke="none" stroke-width="1" />
        </clipPath>
        <clipPath id="e0fglbc8loy9g4">
            <rect id="e0fglbc8loy9g5" width="394" height="144" rx="0" ry="0" transform="matrix(1 0 0 1 821 121)" fill="rgb(255,255,255)" stroke="none" stroke-width="1" />
        </clipPath>
        <filter id="e0fglbc8loy9g8-filter" x="-400%" width="600%" y="-400%" height="760%">
            <feGaussianBlur id="e0fglbc8loy9g8-filter-drop-shadow-0-blur" in="SourceAlpha" stdDeviation="50,50" />
            <feOffset id="e0fglbc8loy9g8-filter-drop-shadow-0-offset" dx="0" dy="4" result="tmp" />
            <feFlood id="e0fglbc8loy9g8-filter-drop-shadow-0-flood" flood-color="rgb(227,227,239)" />
            <feComposite id="e0fglbc8loy9g8-filter-drop-shadow-0-composite" operator="in" in2="tmp" />
            <feMerge id="e0fglbc8loy9g8-filter-drop-shadow-0-merge">
                <feMergeNode id="e0fglbc8loy9g8-filter-drop-shadow-0-merge-node-1" />
                <feMergeNode id="e0fglbc8loy9g8-filter-drop-shadow-0-merge-node-2" in="SourceGraphic" />
            </feMerge>
        </filter>
        <filter id="e0fglbc8loy9g9-filter" x="-400%" width="600%" y="-400%" height="760%">
            <feGaussianBlur id="e0fglbc8loy9g9-filter-drop-shadow-0-blur" in="SourceAlpha" stdDeviation="40,40" />
            <feOffset id="e0fglbc8loy9g9-filter-drop-shadow-0-offset" dx="0" dy="0" result="tmp" />
            <feFlood id="e0fglbc8loy9g9-filter-drop-shadow-0-flood" flood-color="rgb(226,226,239)" />
            <feComposite id="e0fglbc8loy9g9-filter-drop-shadow-0-composite" operator="in" in2="tmp" />
            <feMerge id="e0fglbc8loy9g9-filter-drop-shadow-0-merge">
                <feMergeNode id="e0fglbc8loy9g9-filter-drop-shadow-0-merge-node-1" />
                <feMergeNode id="e0fglbc8loy9g9-filter-drop-shadow-0-merge-node-2" in="SourceGraphic" />
            </feMerge>
        </filter>
        <filter id="e0fglbc8loy9g10-filter" x="-400%" width="600%" y="-400%" height="760%">
            <feGaussianBlur id="e0fglbc8loy9g10-filter-drop-shadow-0-blur" in="SourceAlpha" stdDeviation="60,60" />
            <feOffset id="e0fglbc8loy9g10-filter-drop-shadow-0-offset" dx="0" dy="0" result="tmp" />
            <feFlood id="e0fglbc8loy9g10-filter-drop-shadow-0-flood" flood-color="rgb(227,227,238)" />
            <feComposite id="e0fglbc8loy9g10-filter-drop-shadow-0-composite" operator="in" in2="tmp" />
            <feMerge id="e0fglbc8loy9g10-filter-drop-shadow-0-merge">
                <feMergeNode id="e0fglbc8loy9g10-filter-drop-shadow-0-merge-node-1" />
                <feMergeNode id="e0fglbc8loy9g10-filter-drop-shadow-0-merge-node-2" in="SourceGraphic" />
            </feMerge>
        </filter>
        <filter id="e0fglbc8loy9g12-filter" x="-400%" width="600%" y="-400%" height="760%">
            <feGaussianBlur id="e0fglbc8loy9g12-filter-drop-shadow-0-blur" in="SourceAlpha" stdDeviation="50,50" />
            <feOffset id="e0fglbc8loy9g12-filter-drop-shadow-0-offset" dx="0" dy="0" result="tmp" />
            <feFlood id="e0fglbc8loy9g12-filter-drop-shadow-0-flood" flood-color="rgb(206,206,227)" />
            <feComposite id="e0fglbc8loy9g12-filter-drop-shadow-0-composite" operator="in" in2="tmp" />
            <feMerge id="e0fglbc8loy9g12-filter-drop-shadow-0-merge">
                <feMergeNode id="e0fglbc8loy9g12-filter-drop-shadow-0-merge-node-1" />
                <feMergeNode id="e0fglbc8loy9g12-filter-drop-shadow-0-merge-node-2" in="SourceGraphic" />
            </feMerge>
        </filter>
        <filter id="e0fglbc8loy9g13-filter" x="-400%" width="600%" y="-400%" height="760%">
            <feGaussianBlur id="e0fglbc8loy9g13-filter-drop-shadow-0-blur" in="SourceAlpha" stdDeviation="30,30" />
            <feOffset id="e0fglbc8loy9g13-filter-drop-shadow-0-offset" dx="0" dy="4" result="tmp" />
            <feFlood id="e0fglbc8loy9g13-filter-drop-shadow-0-flood" flood-color="rgb(226,226,240)" />
            <feComposite id="e0fglbc8loy9g13-filter-drop-shadow-0-composite" operator="in" in2="tmp" />
            <feMerge id="e0fglbc8loy9g13-filter-drop-shadow-0-merge">
                <feMergeNode id="e0fglbc8loy9g13-filter-drop-shadow-0-merge-node-1" />
                <feMergeNode id="e0fglbc8loy9g13-filter-drop-shadow-0-merge-node-2" in="SourceGraphic" />
            </feMerge>
        </filter>
        <filter id="e0fglbc8loy9g14-filter" x="-400%" width="600%" y="-400%" height="760%">
            <feGaussianBlur id="e0fglbc8loy9g14-filter-drop-shadow-0-blur" in="SourceAlpha" stdDeviation="50,50" />
            <feOffset id="e0fglbc8loy9g14-filter-drop-shadow-0-offset" dx="0" dy="0" result="tmp" />
            <feFlood id="e0fglbc8loy9g14-filter-drop-shadow-0-flood" flood-color="rgb(221,221,234)" />
            <feComposite id="e0fglbc8loy9g14-filter-drop-shadow-0-composite" operator="in" in2="tmp" />
            <feMerge id="e0fglbc8loy9g14-filter-drop-shadow-0-merge">
                <feMergeNode id="e0fglbc8loy9g14-filter-drop-shadow-0-merge-node-1" />
                <feMergeNode id="e0fglbc8loy9g14-filter-drop-shadow-0-merge-node-2" in="SourceGraphic" />
            </feMerge>
        </filter>
    </defs>
    <g id="e0fglbc8loy9g6">
        <g id="e0fglbc8loy9g7_to" transform="translate(0,30)">
            <g id="e0fglbc8loy9g7" transform="translate(0,0)">
                <path id="e0fglbc8loy9g8" d="M121.123000,158.407000C121.181000,158.349000,121.239000,158.291000,121.296000,158.233000C121.181000,158.233000,121.123000,158.291000,121.008000,158.291000C119.338000,155.678000,117.207000,153.356000,114.730000,151.440000C105.687000,144.647000,97.104100,146.621000,86.332800,148.073000C86.793600,148.015000,83.625600,144.009000,83.337600,143.719000C81.609600,142.209000,79.420700,141.454000,77.174300,140.874000C72.566300,139.713000,67.612700,140.061000,63.292600,141.861000C59.894200,143.254000,56.553400,145.634000,52.867000,145.286000C49.238100,144.938000,46.415700,142.151000,43.823700,139.655000C32.649200,128.972000,7.938620,127.637000,-2.371850,140.525000C-3.120660,141.454000,-8.823100,152.369000,-7.325490,152.543000C-16.829600,151.556000,-25.354400,153.530000,-32.496900,159.916000C-39.754500,166.361000,-42.865000,174.198000,-42.001000,183.313000C-39.639300,208.162000,-10.032700,208.800000,8.572230,207.813000C21.820300,207.117000,33.513200,207.697000,45.666900,213.154000C58.396600,218.844000,70.262300,222.211000,81.436800,210.832000C82.473600,209.787000,88.809600,198.989000,87.715200,198.756000C97.046500,200.498000,105.687000,199.163000,113.347000,193.357000C121.123000,187.493000,124.925000,179.888000,124.810000,170.657000C124.810000,166.361000,123.427000,162.123000,121.123000,158.407000Z" transform="matrix(1 0 0 1 0 -1)" filter="url(#e0fglbc8loy9g8-filter)" fill="rgb(255,255,255)" stroke="none" stroke-width="1" />
                <path id="e0fglbc8loy9g9" d="M1216.200000,194.564000C1216.140000,194.506000,1216.020000,194.506000,1215.970000,194.448000C1216.080000,194.448000,1216.200000,194.448000,1216.250000,194.448000C1217.350000,192.126000,1219.080000,189.978000,1221.260000,188.178000C1229.040000,181.734000,1240.620000,184.579000,1250.060000,180.108000C1253.580000,178.483000,1256.520000,176.277000,1260.200000,174.825000C1265.440000,172.793000,1271.950000,172.561000,1277.890000,173.896000C1285.140000,175.580000,1285.550000,178.425000,1289.690000,173.258000C1295.170000,166.523000,1302.650000,161.182000,1313.540000,159.556000C1328.860000,157.234000,1347.120000,162.227000,1353.170000,173.722000C1362.730000,171.864000,1372.870000,172.445000,1381.910000,176.567000C1391.360000,180.863000,1396.720000,186.727000,1398.100000,194.158000C1400.170000,205.189000,1387.500000,218.774000,1361.460000,215.349000C1360.250000,221.503000,1355.880000,226.147000,1346.720000,227.541000C1341.530000,228.295000,1336,227.831000,1331.050000,225.973000C1330.010000,225.567000,1329.040000,225.044000,1328.060000,224.522000C1323.850000,226.438000,1321.320000,231.547000,1316.770000,233.811000C1312.270000,236.075000,1307.090000,237.526000,1301.560000,238.049000C1292.800000,238.862000,1283.470000,237.120000,1275.700000,233.521000C1274.260000,232.882000,1260.660000,223.303000,1262.510000,222.780000C1252.950000,225.335000,1243.270000,225.335000,1233.530000,221.619000C1223.680000,217.845000,1217.640000,212.214000,1215.390000,204.841000C1214.240000,201.357000,1214.640000,197.816000,1216.200000,194.564000Z" transform="matrix(1 0 0 1 0 -1)" filter="url(#e0fglbc8loy9g9-filter)" fill="rgb(255,255,255)" stroke="none" stroke-width="1" />
                <path id="e0fglbc8loy9g10" d="M928.278000,180.702000C928.624000,178.205000,928.566000,175.651000,928.105000,173.154000C924.707000,154.054000,900.342000,150.106000,884.444000,151.209000C882.140000,151.383000,879.894000,151.615000,877.705000,152.022000C874.019000,142.849000,866.415000,135.476000,856.335000,133.037000C844.009000,130.018000,830.300000,133.444000,820.796000,141.862000C807.490000,128.160000,782.722000,132.631000,772.066000,147.551000C774.773000,143.720000,755.362000,144.474000,754.325000,144.649000C749.544000,145.403000,744.936000,147.145000,740.846000,149.758000C730.709000,156.028000,725.294000,164.852000,724.430000,176.115000C723.566000,188.133000,731.400000,201.370000,741.883000,206.885000C748.738000,210.485000,755.131000,210.485000,762.562000,210.020000C763.080000,209.962000,768.725000,209.150000,773.103000,207.988000C778.920000,215.768000,791.650000,220.645000,806.050000,219.658000C808.873000,219.484000,811.580000,219.077000,814.172000,218.439000C814.402000,218.381000,819.701000,224.535000,820.393000,225.173000C830.818000,233.940000,846.428000,234.578000,858.870000,229.760000C869.987000,225.405000,879.203000,216.291000,883.695000,205.144000C894.121000,208.337000,905.987000,207.408000,915.088000,201.370000C922.230000,196.783000,927.241000,189.004000,928.278000,180.702000Z" transform="matrix(1 0 0 1 -0.33898310999996 -1.64432120000001)" filter="url(#e0fglbc8loy9g10-filter)" fill="rgb(255,255,255)" stroke="none" stroke-width="1" />
            </g>
        </g>
        <g id="e0fglbc8loy9g11_to" transform="translate(10,40)">
            <g id="e0fglbc8loy9g11" transform="translate(0,0)">
                <path id="e0fglbc8loy9g12" d="M1255.925280,209.564432C1255.998341,209.492588,1256.071402,209.492588,1256.144464,209.421962C1256.071402,209.421962,1255.925280,209.421962,1255.864395,209.492588C1252.004324,203.059542,1244.430303,198.677082,1233.763355,199.667062C1232.156006,199.808314,1230.475596,200.090818,1228.929132,199.949566C1225.702259,199.667062,1223.595658,197.616475,1221.135928,196.273365C1214.621296,192.667791,1205.573873,193.940275,1197.999852,197.192720C1193.713590,199.030211,1192.240187,199.808314,1189.366443,196.908999C1184.106030,191.536558,1177.092146,187.507228,1167.277579,186.941003C1153.529879,186.093492,1137.675579,191.819062,1133.048364,202.141405C1124.488016,201.292676,1115.440592,202.565160,1107.732626,206.735742C1099.659353,211.119420,1095.239145,216.633112,1094.472001,223.066159C1093.351728,232.751651,1105.479903,243.427123,1128.421148,238.549064C1129.894551,243.780253,1134.095575,247.456453,1142.302794,247.880209C1146.930009,248.162713,1151.849469,247.315202,1156.123555,245.335241C1157.036821,244.911485,1157.803965,244.345260,1158.717231,243.850879C1162.577302,245.193989,1165.170978,249.364571,1169.384179,250.991402C1173.512142,252.546390,1178.212419,253.465745,1183.192764,253.465745C1190.985968,253.465745,1199.193187,251.344532,1205.853941,247.597705C1207.047275,246.890228,1218.542252,237.629710,1216.861842,237.347206C1225.556136,238.831568,1234.116484,238.124091,1242.530710,234.165387C1251.017996,230.206682,1255.998341,224.904868,1257.544805,218.330569C1258.104942,215.290002,1257.471744,212.180026,1255.925280,209.564432Z" transform="matrix(0.90000000000000 0 0 0.90000000000000 117.60732722350008 25.01621268800000)" filter="url(#e0fglbc8loy9g12-filter)" fill="rgb(255,255,255)" stroke="none" stroke-width="1" />
                <path id="e0fglbc8loy9g13" d="M600.992000,207.931000C600.935000,207.989000,600.819000,207.989000,600.762000,208.047000C600.877000,208.047000,600.935000,208.047000,601.050000,208.047000C602.087000,210.021000,603.699000,211.820000,605.831000,213.330000C613.203000,218.729000,624.205000,216.059000,633.191000,219.658000C636.532000,220.993000,639.354000,222.851000,642.810000,224.012000C647.764000,225.638000,653.985000,225.754000,659.629000,224.419000C666.541000,222.793000,666.945000,220.355000,670.861000,224.709000C676.045000,230.399000,683.130000,234.869000,693.498000,236.030000C708.071000,237.714000,725.467000,233.011000,731.284000,222.967000C740.328000,224.361000,750.062000,223.664000,758.644000,219.948000C767.630000,216.059000,772.757000,210.891000,774.139000,204.447000C776.155000,194.926000,764.117000,183.431000,739.348000,186.972000C738.196000,181.689000,734.107000,177.799000,725.351000,176.812000C720.398000,176.290000,715.156000,176.754000,710.433000,178.496000C709.454000,178.844000,708.532000,179.367000,707.553000,179.831000C703.578000,178.264000,701.217000,173.909000,696.839000,172.051000C692.577000,170.194000,687.623000,169.033000,682.382000,168.742000C674.087000,168.220000,665.159000,169.903000,657.729000,173.213000C656.346000,173.793000,643.386000,182.328000,645.114000,182.734000C636.013000,180.760000,626.797000,180.934000,617.523000,184.301000C608.135000,187.727000,602.375000,192.720000,600.186000,199.106000C599.149000,202.125000,599.552000,205.202000,600.992000,207.931000Z" transform="matrix(1 0 0 1 0 -1)" filter="url(#e0fglbc8loy9g13-filter)" fill="rgb(255,255,255)" stroke="none" stroke-width="1" />
                <path id="e0fglbc8loy9g14" d="M190.417000,211.645000C190.475000,211.587000,190.532000,211.587000,190.647000,211.529000C190.590000,211.529000,190.475000,211.529000,190.417000,211.529000C189.496000,209.903000,188.055000,208.394000,186.270000,207.117000C179.876000,202.704000,170.545000,205.201000,162.827000,202.298000C159.946000,201.253000,157.527000,199.743000,154.532000,198.815000C150.270000,197.537000,144.970000,197.595000,140.190000,198.815000C134.314000,200.324000,134.026000,202.414000,130.628000,198.815000C126.077000,194.054000,119.914000,190.454000,111.101000,189.700000C98.659700,188.597000,83.914000,192.951000,79.190700,201.659000C71.414700,200.672000,63.177800,201.485000,55.920200,204.852000C48.316900,208.336000,44.054500,212.864000,43.075300,218.380000C41.577700,226.566000,52.061000,236.029000,73.142700,232.487000C74.237100,236.958000,77.808300,240.209000,85.296400,240.848000C89.501200,241.196000,93.994000,240.673000,98.026100,239.106000C98.832500,238.816000,99.638900,238.351000,100.445000,237.945000C103.844000,239.164000,105.975000,242.822000,109.719000,244.331000C113.405000,245.782000,117.668000,246.711000,122.103000,246.827000C129.188000,247.060000,136.734000,245.434000,143.012000,242.473000C144.164000,241.951000,155.050000,234.403000,153.553000,234.113000C161.387000,235.623000,169.163000,235.274000,177.054000,232.139000C185.003000,229.004000,189.783000,224.650000,191.512000,219.134000C192.088000,216.580000,191.742000,213.967000,190.417000,211.645000Z" transform="matrix(1 0 0 1 -0.43407038000001 -0.06163514999997)" filter="url(#e0fglbc8loy9g14-filter)" fill="rgb(255,255,255)" stroke="none" stroke-width="1" />
            </g>
        </g>
        <g id="e0fglbc8loy9g15_to" transform="translate(0,70)">
            <g id="e0fglbc8loy9g15" transform="translate(0,0)" clip-path="url(#e0fglbc8loy9g4)">
                <path id="e0fglbc8loy9g16" d="M969.184000,224.883000L971.785000,169.165000L980.954000,161.859000L993.840000,208.786000L969.184000,224.883000Z" fill="rgb(10,10,130)" stroke="none" stroke-width="1" />
                <path id="e0fglbc8loy9g17" d="M1129.490000,224.276000C1129.660000,222.026000,1127.860000,220.057000,1125.470000,219.880000C1123.080000,219.703000,1121.010000,221.383000,1120.840000,223.634000C1120.670000,225.885000,1122.470000,227.853000,1124.860000,228.030000C1127.250000,228.207000,1129.320000,226.527000,1129.490000,224.276000Z" fill="rgb(20,20,50)" stroke="none" stroke-width="1" />
                <path id="e0fglbc8loy9g18" d="M1098.040000,187.613000L1215,260.542000L1214.130000,262.771000L1093.580000,190.090000L1098.040000,187.613000Z" fill="rgb(255,255,255)" stroke="none" stroke-width="1" />
                <path id="e0fglbc8loy9g19" d="M1027.790000,258.437000L1025.930000,259.923000L997.185000,249.522000L1011.810000,245.064000L1027.790000,258.437000Z" fill="rgb(10,10,130)" stroke="none" stroke-width="1" />
                <path id="e0fglbc8loy9g20" d="M1087.380000,189.470000C1087.510000,189.470000,1087.510000,189.470000,1087.630000,189.470000L1087.630000,189.223000L1087.380000,189.470000Z" fill="rgb(255,255,255)" stroke="none" stroke-width="1" />
                <path id="e0fglbc8loy9g21" d="M1139.170000,139.077000C1139.170000,139.077000,1140.040000,137.715000,1131.490000,127.190000C1120.090000,113.075000,1095.930000,126.324000,1080.570000,135.857000L994.459000,202.100000L975.626000,218.196000L966.830000,227.730000L958.281000,239.864000L958.033000,240.360000L959.148000,239.617000L965.962000,235.531000L964.847000,243.331000C964.723000,243.950000,964.971000,244.569000,965.467000,245.065000C965.962000,245.560000,966.582000,245.684000,967.201000,245.684000C979.096000,243.950000,995.450000,236.150000,1004.120000,231.445000C1007.960000,229.464000,1010.810000,225.873000,1011.930000,221.663000L1012.180000,218.444000C1012.420000,215.596000,1013.790000,212.872000,1016.020000,211.139000L1032.620000,197.395000C1035.590000,194.919000,1037.700000,191.699000,1038.690000,188.109000L1039.560000,185.013000L1041.790000,199.871000C1041.910000,200.490000,1042.280000,200.986000,1042.780000,201.233000C1043.280000,201.481000,1044.020000,201.481000,1044.510000,201.109000C1058.640000,191.823000,1132.850000,143.039000,1135.080000,140.810000C1137.560000,138.458000,1137.690000,136.229000,1137.690000,136.229000C1145.240000,161.364000,1115.630000,173.993000,1095.190000,191.452000L1095.810000,191.823000C1095.680000,192.195000,1095.440000,192.690000,1095.190000,193.061000C1095.560000,192.814000,1095.680000,192.690000,1095.680000,192.690000C1100.390000,189.099000,1127.400000,170.898000,1133.100000,161.735000C1133.100000,161.612000,1141.650000,150.220000,1139.170000,139.077000Z" fill="rgb(255,255,255)" stroke="none" stroke-width="1" />
                <path id="e0fglbc8loy9g22" d="M1071.030000,153.440000C1070.910000,154.431000,1070.530000,155.545000,1070.040000,155.917000C1069.540000,156.288000,1069.290000,155.793000,1069.290000,154.678000C1069.420000,153.688000,1069.790000,152.573000,1070.290000,152.202000C1070.780000,151.831000,1071.030000,152.326000,1071.030000,153.440000Z" fill="rgb(20,20,50)" stroke="none" stroke-width="1" />
                <path id="e0fglbc8loy9g23" d="M1064.960000,158.022000C1064.830000,159.013000,1064.460000,160.127000,1063.970000,160.499000C1063.470000,160.870000,1063.220000,160.251000,1063.220000,159.260000C1063.350000,158.270000,1063.720000,157.156000,1064.210000,156.784000C1064.710000,156.413000,1064.960000,156.908000,1064.960000,158.022000Z" fill="rgb(20,20,50)" stroke="none" stroke-width="1" />
                <path id="e0fglbc8loy9g24" d="M1059.010000,162.479000C1058.890000,163.470000,1058.520000,164.584000,1058.020000,164.955000C1057.520000,165.327000,1057.280000,164.708000,1057.280000,163.717000C1057.400000,162.727000,1057.770000,161.612000,1058.270000,161.241000C1058.760000,160.993000,1059.010000,161.488000,1059.010000,162.479000Z" fill="rgb(20,20,50)" stroke="none" stroke-width="1" />
                <path id="e0fglbc8loy9g25" d="M1053.190000,166.937000C1053.060000,167.928000,1052.690000,169.042000,1052.200000,169.413000C1051.700000,169.785000,1051.450000,169.166000,1051.580000,168.175000C1051.700000,167.185000,1052.070000,166.070000,1052.570000,165.823000C1052.940000,165.327000,1053.310000,165.947000,1053.190000,166.937000Z" fill="rgb(20,20,50)" stroke="none" stroke-width="1" />
                <path id="e0fglbc8loy9g26" d="M1047.490000,171.147000C1047.360000,172.138000,1046.990000,173.252000,1046.620000,173.500000C1046.130000,173.871000,1045.880000,173.252000,1046,172.261000C1046.130000,171.271000,1046.500000,170.156000,1046.870000,169.909000C1047.240000,169.661000,1047.610000,170.156000,1047.490000,171.147000Z" fill="rgb(20,20,50)" stroke="none" stroke-width="1" />
                <path id="e0fglbc8loy9g27" d="M1041.910000,175.480000C1041.790000,176.471000,1041.420000,177.461000,1041.050000,177.833000C1040.670000,178.204000,1040.300000,177.585000,1040.430000,176.718000C1040.550000,175.728000,1040.920000,174.737000,1041.290000,174.366000C1041.660000,173.870000,1042.040000,174.490000,1041.910000,175.480000Z" fill="rgb(20,20,50)" stroke="none" stroke-width="1" />
                <path id="e0fglbc8loy9g28" d="M1036.460000,179.566000C1036.340000,180.556000,1035.970000,181.547000,1035.590000,181.918000C1035.220000,182.290000,1034.850000,181.671000,1034.970000,180.804000C1035.100000,179.937000,1035.470000,178.823000,1035.840000,178.451000C1036.210000,178.080000,1036.460000,178.575000,1036.460000,179.566000Z" fill="rgb(20,20,50)" stroke="none" stroke-width="1" />
                <path id="e0fglbc8loy9g29" d="M1031.010000,183.652000C1030.890000,184.642000,1030.510000,185.633000,1030.140000,186.004000C1029.770000,186.376000,1029.400000,185.757000,1029.520000,184.890000C1029.650000,183.899000,1030.020000,182.909000,1030.390000,182.537000C1030.890000,182.166000,1031.130000,182.661000,1031.010000,183.652000Z" fill="rgb(20,20,50)" stroke="none" stroke-width="1" />
                <path id="e0fglbc8loy9g30" d="M1025.810000,187.615000C1025.680000,188.605000,1025.310000,189.596000,1024.940000,189.843000C1024.570000,190.091000,1024.320000,189.596000,1024.320000,188.729000C1024.320000,187.862000,1024.810000,186.748000,1025.190000,186.500000C1025.560000,186.129000,1025.930000,186.624000,1025.810000,187.615000Z" fill="rgb(20,20,50)" stroke="none" stroke-width="1" />
                <path id="e0fglbc8loy9g31" d="M1020.600000,191.576000C1020.480000,192.566000,1020.110000,193.557000,1019.730000,193.804000C1019.360000,194.052000,1019.120000,193.557000,1019.120000,192.690000C1019.240000,191.699000,1019.610000,190.709000,1019.980000,190.461000C1020.480000,190.090000,1020.730000,190.585000,1020.600000,191.576000Z" fill="rgb(20,20,50)" stroke="none" stroke-width="1" />
                <path id="e0fglbc8loy9g32" d="M1015.650000,195.413000C1015.520000,196.404000,1015.150000,197.395000,1014.780000,197.642000C1014.410000,197.890000,1014.160000,197.395000,1014.160000,196.528000C1014.280000,195.661000,1014.650000,194.671000,1015.030000,194.299000C1015.400000,193.928000,1015.650000,194.423000,1015.650000,195.413000Z" fill="rgb(20,20,50)" stroke="none" stroke-width="1" />
                <path id="e0fglbc8loy9g33" d="M1010.570000,199.129000C1010.440000,199.996000,1010.070000,200.987000,1009.700000,201.358000C1009.330000,201.606000,1009.080000,201.110000,1009.080000,200.244000C1009.080000,199.377000,1009.450000,198.386000,1009.950000,198.015000C1010.440000,197.767000,1010.690000,198.263000,1010.570000,199.129000Z" fill="rgb(20,20,50)" stroke="none" stroke-width="1" />
                <path id="e0fglbc8loy9g34" d="M1005.730000,202.843000C1005.610000,203.710000,1005.360000,204.701000,1004.990000,204.948000C1004.620000,205.196000,1004.370000,204.701000,1004.500000,203.834000C1004.620000,202.967000,1004.870000,201.977000,1005.240000,201.729000C1005.610000,201.358000,1005.860000,201.977000,1005.730000,202.843000Z" fill="rgb(20,20,50)" stroke="none" stroke-width="1" />
                <path id="e0fglbc8loy9g35" d="M1001.030000,206.434000C1000.900000,207.301000,1000.650000,208.291000,1000.280000,208.539000C999.911000,208.786000,999.663000,208.291000,999.787000,207.425000C999.911000,206.558000,1000.160000,205.567000,1000.530000,205.320000C1000.780000,205.072000,1001.030000,205.567000,1001.030000,206.434000Z" fill="rgb(20,20,50)" stroke="none" stroke-width="1" />
                <path id="e0fglbc8loy9g36" d="M996.318000,210.026000C996.194000,210.892000,995.946000,211.883000,995.574000,212.131000C995.203000,212.378000,994.955000,211.883000,995.079000,211.016000C995.203000,210.150000,995.450000,209.159000,995.822000,208.911000C996.070000,208.664000,996.318000,209.159000,996.318000,210.026000Z" fill="rgb(20,20,50)" stroke="none" stroke-width="1" />
                <path id="e0fglbc8loy9g37" d="M991.610000,213.493000C991.486000,214.359000,991.238000,215.350000,990.866000,215.597000C990.495000,215.845000,990.247000,215.350000,990.371000,214.483000C990.495000,213.616000,990.742000,212.626000,991.114000,212.378000C991.486000,212.131000,991.733000,212.626000,991.610000,213.493000Z" fill="rgb(20,20,50)" stroke="none" stroke-width="1" />
                <path id="e0fglbc8loy9g38" d="M987.149000,216.959000C987.025000,217.826000,986.777000,218.817000,986.406000,219.064000C986.034000,219.312000,985.786000,218.817000,985.910000,217.950000C986.034000,217.083000,986.282000,216.093000,986.654000,215.845000C987.025000,215.597000,987.149000,216.093000,987.149000,216.959000Z" fill="rgb(20,20,50)" stroke="none" stroke-width="1" />
                <path id="e0fglbc8loy9g39" d="M982.689000,220.301000C982.565000,221.168000,982.317000,222.035000,981.945000,222.406000C981.574000,222.654000,981.326000,222.158000,981.450000,221.292000C981.574000,220.425000,981.821000,219.558000,982.193000,219.187000C982.565000,218.939000,982.813000,219.434000,982.689000,220.301000Z" fill="rgb(20,20,50)" stroke="none" stroke-width="1" />
                <path id="e0fglbc8loy9g40" d="M978.352000,223.645000C978.228000,224.512000,977.981000,225.378000,977.609000,225.626000C977.237000,225.874000,977.113000,225.378000,977.113000,224.512000C977.237000,223.645000,977.485000,222.778000,977.857000,222.531000C978.104000,222.283000,978.352000,222.778000,978.352000,223.645000Z" fill="rgb(20,20,50)" stroke="none" stroke-width="1" />
                <path id="e0fglbc8loy9g41" d="M1077.220000,148.735000C1077.100000,149.726000,1076.730000,150.964000,1076.230000,151.335000C1075.740000,151.707000,1075.370000,151.211000,1075.490000,150.097000C1075.610000,149.107000,1075.980000,147.868000,1076.480000,147.497000C1076.980000,147.125000,1077.220000,147.621000,1077.220000,148.735000Z" fill="rgb(20,20,50)" stroke="none" stroke-width="1" />
                <path id="e0fglbc8loy9g42" d="M1099.400000,132.144000L1105.470000,126.324000L1108.320000,125.705000L1103.490000,130.905000L1099.400000,132.144000Z" fill="rgb(20,20,50)" stroke="none" stroke-width="1" />
                <path id="e0fglbc8loy9g43" d="M1109.930000,125.457000L1113.280000,124.838000L1112.910000,128.305000L1104.730000,130.657000L1109.930000,125.457000Z" fill="rgb(20,20,50)" stroke="none" stroke-width="1" />
                <path id="e0fglbc8loy9g44" d="M966.334000,232.932000C966.334000,232.932000,968.688000,236.151000,958.157000,240.608000L889.764000,225.874000L892.614000,224.141000L966.334000,232.932000Z" fill="rgb(10,10,130)" stroke="none" stroke-width="1" />
                <path id="e0fglbc8loy9g45" d="M827.938000,164.832000L1055.670000,174.490000L1058.640000,180.557000L825.460000,166.565000L827.938000,164.832000Z" fill="rgb(255,255,255)" stroke="none" stroke-width="1" />
                <path id="e0fglbc8loy9g46" d="M1005.490000,192.791000C1005.700000,189.927000,1003.440000,187.424000,1000.440000,187.201000C997.433000,186.978000,994.826000,189.119000,994.614000,191.984000C994.401000,194.848000,996.662000,197.351000,999.665000,197.574000C1002.670000,197.796000,1005.270000,195.655000,1005.490000,192.791000Z" fill="rgb(20,20,50)" stroke="none" stroke-width="1" />
                <path id="e0fglbc8loy9g47" d="M1114.770000,124.838000L1125.420000,125.828000L1127.160000,129.295000L1114.520000,128.181000L1114.770000,124.838000Z" fill="rgb(20,20,50)" stroke="none" stroke-width="1" />
                <path id="e0fglbc8loy9g48" d="M1126.660000,126.572000L1133.720000,129.420000L1135.950000,133.258000L1128.390000,129.544000L1126.660000,126.572000Z" fill="rgb(20,20,50)" stroke="none" stroke-width="1" />
                <path id="e0fglbc8loy9g49" d="M1214.630000,262.276000L1096.180000,190.585000C1096.180000,190.461000,1096.180000,190.461000,1096.300000,190.338000C1116.620000,173.375000,1145.120000,160.745000,1137.690000,136.105000C1137.690000,136.105000,1137.560000,138.210000,1135.080000,140.687000C1134.090000,141.677000,1132.610000,142.420000,1131.490000,143.287000C1128.770000,145.144000,1126.040000,147.001000,1123.190000,148.859000C1113.400000,155.421000,1103.740000,161.860000,1093.950000,168.298000C1070.040000,184.147000,1066.690000,187.737000,1060.990000,186.252000C1058.520000,185.633000,1057.280000,181.547000,1057.520000,179.194000C1057.400000,180.061000,1057.280000,180.927000,1056.900000,181.670000L1057.280000,178.823000L825.089000,166.193000L821,169.536000L1022.340000,203.710000C1021.590000,204.453000,1021.100000,205.320000,1020.850000,206.558000C1020.350000,208.539000,1020.600000,210.520000,1020.350000,212.501000C1019.860000,216.216000,1017.880000,219.682000,1015.400000,222.406000C1012.300000,225.873000,1008.210000,229.093000,1004.120000,231.197000C995.450000,235.779000,979.096000,243.703000,967.201000,245.437000C966.582000,245.560000,965.962000,245.313000,965.467000,244.817000C964.971000,244.322000,964.847000,243.703000,964.847000,243.084000L965.962000,235.283000L959.148000,239.369000L958.033000,245.313000C957.785000,246.922000,958.033000,248.656000,958.900000,250.018000C959.148000,250.513000,959.767000,250.884000,960.263000,250.884000L975.626000,251.504000C977.237000,251.504000,978.724000,251.504000,980.335000,251.380000L991.857000,250.265000C993.220000,250.142000,994.583000,249.894000,995.946000,249.646000L1006.110000,247.541000C1007.470000,247.294000,1008.830000,246.922000,1010.190000,246.427000L1016.270000,244.198000C1018,243.579000,1019.730000,242.713000,1021.350000,241.598000L1034.110000,233.179000C1034.110000,233.179000,1037.080000,232.931000,1039.930000,232.807000C1041.540000,232.683000,1043.150000,232.559000,1044.760000,232.436000C1045.260000,232.436000,1045.510000,232.436000,1045.510000,232.436000L1046.250000,232.188000L1052.200000,229.959000L1057.400000,228.102000L1061.360000,225.130000L1066.320000,221.416000L1213.140000,265L1214.630000,262.276000ZM1087.630000,189.347000L1087.630000,189.595000C1087.510000,189.595000,1087.510000,189.595000,1087.380000,189.595000L1087.630000,189.347000Z" transform="matrix(1 0 0 1 0.09863054000357 0.13400000000036)" fill="rgb(217,220,231)" stroke="none" stroke-width="1" />
                <path id="e0fglbc8loy9g50" d="M1159.490000,205.691000C1159.370000,204.701000,1159,203.710000,1158.630000,202.596000C1157.140000,198.881000,1153.920000,195.786000,1150.080000,194.548000C1138.430000,190.833000,1121.830000,208.291000,1122.080000,217.702000C1122.690000,239.617000,1162.590000,224.016000,1159.490000,205.691000Z" fill="rgb(217,220,231)" stroke="none" stroke-width="1" />
                <path id="e0fglbc8loy9g51" d="M1150.640000,219.560000C1157.160000,218.026000,1161.100000,211.009000,1159.420000,203.886000C1157.750000,196.763000,1151.100000,192.231000,1144.570000,193.765000C1138.040000,195.298000,1134.110000,202.315000,1135.780000,209.438000C1137.460000,216.561000,1144.110000,221.093000,1150.640000,219.560000Z" fill="rgb(255,255,255)" stroke="none" stroke-width="1" />
                <path id="e0fglbc8loy9g52" d="M1150.490000,217.876000C1155.960000,216.593000,1159.200000,210.534000,1157.750000,204.343000C1156.290000,198.152000,1150.680000,194.173000,1145.220000,195.456000C1139.760000,196.739000,1136.510000,202.798000,1137.970000,208.989000C1139.420000,215.180000,1145.030000,219.159000,1150.490000,217.876000Z" fill="rgb(20,20,50)" stroke="none" stroke-width="1" />
                <path id="e0fglbc8loy9g53" d="M1145.100000,209.625000C1145.570000,209.515000,1145.850000,208.995000,1145.720000,208.462000C1145.600000,207.930000,1145.120000,207.587000,1144.650000,207.696000C1144.180000,207.806000,1143.910000,208.326000,1144.030000,208.859000C1144.160000,209.391000,1144.640000,209.734000,1145.100000,209.625000Z" fill="rgb(185,185,194)" stroke="none" stroke-width="1" />
                <path id="e0fglbc8loy9g54" d="M1032.500000,170.652000C1031.010000,163.470000,1024.440000,158.765000,1017.880000,160.127000C1016.270000,160.499000,1014.780000,161.118000,1013.540000,161.985000C1010.690000,163.966000,998.919000,172.757000,997.185000,174.614000C994.583000,177.462000,993.344000,181.424000,994.211000,185.510000C995.574000,192.196000,1002.020000,196.653000,1008.710000,195.291000C1009.700000,195.044000,1010.690000,194.796000,1011.560000,194.301000C1014.900000,192.691000,1028.780000,183.653000,1030.510000,181.176000C1032.370000,178.328000,1033.360000,174.490000,1032.500000,170.652000Z" fill="rgb(217,220,231)" stroke="none" stroke-width="1" />
                <path id="e0fglbc8loy9g55" d="M998.796000,187.491000C1000.530000,185.634000,1012.300000,176.843000,1015.150000,174.862000C1016.390000,173.995000,1017.880000,173.252000,1019.490000,173.004000C1024.320000,172.014000,1029.150000,174.242000,1032,178.328000C1032.870000,175.976000,1033.120000,173.376000,1032.620000,170.652000C1031.130000,163.470000,1024.570000,158.765000,1018,160.127000C1016.390000,160.499000,1014.900000,161.118000,1013.660000,161.985000C1010.810000,163.966000,999.043000,172.757000,997.309000,174.614000C994.707000,177.462000,993.468000,181.424000,994.335000,185.510000C994.707000,187.491000,995.574000,189.224000,996.813000,190.710000C997.061000,189.596000,997.804000,188.481000,998.796000,187.491000Z" fill="rgb(255,255,255)" stroke="none" stroke-width="1" />
                <path id="e0fglbc8loy9g56" d="M1024.340000,186.259000C1031.130000,184.663000,1035.250000,177.433000,1033.520000,170.111000C1031.800000,162.788000,1024.900000,158.145000,1018.100000,159.741000C1011.310000,161.337000,1007.200000,168.567000,1008.920000,175.890000C1010.640000,183.213000,1017.550000,187.855000,1024.340000,186.259000Z" fill="rgb(255,255,255)" stroke="none" stroke-width="1" />
                <path id="e0fglbc8loy9g57" d="M1024.090000,182.229000C1029.550000,180.946000,1032.860000,175.157000,1031.480000,169.299000C1030.100000,163.441000,1024.560000,159.732000,1019.100000,161.015000C1013.630000,162.298000,1010.320000,168.087000,1011.700000,173.945000C1013.080000,179.803000,1018.620000,183.512000,1024.090000,182.229000Z" fill="rgb(20,20,50)" stroke="none" stroke-width="1" />
                <path id="e0fglbc8loy9g58" d="M1019.580000,175.931000C1020.050000,175.822000,1020.330000,175.301000,1020.200000,174.769000C1020.070000,174.236000,1019.600000,173.893000,1019.130000,174.003000C1018.660000,174.112000,1018.390000,174.633000,1018.510000,175.165000C1018.640000,175.698000,1019.120000,176.041000,1019.580000,175.931000Z" fill="rgb(185,185,194)" stroke="none" stroke-width="1" />
            </g>
        </g>
    </g>
</svg>